<?xml version="1.0" encoding="utf-8"?>
<!-- Generator: Adobe Illustrator 16.0.0, SVG Export Plug-In . SVG Version: 6.00 Build 0)  -->
<!DOCTYPE svg PUBLIC "-//W3C//DTD SVG 1.1//EN" "http://www.w3.org/Graphics/SVG/1.1/DTD/svg11.dtd">
<svg version="1.1" id="Layer_1" xmlns="http://www.w3.org/2000/svg" xmlns:xlink="http://www.w3.org/1999/xlink" x="0px" y="0px"
	 width="50px" height="45.834px" viewBox="0 0 50 45.834" enable-background="new 0 0 50 45.834" xml:space="preserve">
<g>
	<path fill="#675243" d="M13.539,24.074l3.75,1.583l-5.248-9.271H0.658l3.308,2.025l0.797,0.597l-0.432,0.897
		c-0.093,0.195-2.304,4.792-2.81,5.78c-0.273,0.536-0.58,2.798,0.199,3.624c1.379,1.462,2.883,2.202,4.473,2.202h2.893l3.87-6.466
		L13.539,24.074z"/>
	<path fill="#675243" d="M17.967,0.449c-0.455-0.184-1.005-0.28-1.592-0.28c-0.864,0-1.748,0.202-2.488,0.57
		c-0.943,0.469-1.838,1.999-2.22,2.652c-0.112,0.19-0.2,0.339-0.261,0.429c-0.151,0.224-1.005,1.752-1.896,3.369l8.227,5.214
		L21.8,4.566C20.258,1.648,18.884,0.817,17.967,0.449z"/>
	<path fill="#675243" d="M40.021,30.444c3.952,0,5.576-0.867,6.244-1.594c1.235-1.346,1.688-2.827,1.275-4.174
		c-0.273-0.885-2.398-4.891-4.006-7.825l-8.835,5.42l4.595,8.165C39.504,30.44,39.749,30.444,40.021,30.444z"/>
	<g>
		<path fill="#FFFFFF" d="M20.873,6.286c0,0,3.081,8.95,0.179,15.338c-2.684,5.917-11.664,9.958-11.664,9.958"/>
		<path fill="#FFFFFF" d="M20.873,6.286c0,0-8.767,3.571-11.665,9.959c-2.687,5.918,0.18,15.337,0.18,15.337"/>
	</g>
	<g>
		<path fill="#FFFFFF" d="M10.275,31.987"/>
		<path fill="#FFFFFF" d="M49.342,10.191c0,0-14.773-3.753-24.637,1.751c-9.138,5.1-14.43,20.045-14.43,20.045L49.342,10.191"/>
	</g>
	<path fill="#FFFFFF" d="M49.342,10.191L10.275,31.987c0,0,15.498,3.346,24.636-1.753C44.774,24.733,49.342,10.191,49.342,10.191z"
		/>
	<g opacity="0.9">
		<path fill="#61932F" d="M20.873,6.286c0,0,3.081,8.95,0.179,15.338c-2.684,5.917-11.664,9.958-11.664,9.958"/>
		<path fill="#6DA335" d="M20.873,6.286c0,0-8.767,3.571-11.665,9.959c-2.687,5.918,0.18,15.337,0.18,15.337"/>
	</g>
	<g opacity="0.9">
		<path fill="#84C341" d="M10.275,31.987"/>
		<path fill="#79B23B" d="M49.342,10.191c0,0-14.773-3.753-24.637,1.751c-9.138,5.1-14.43,20.045-14.43,20.045L49.342,10.191"/>
	</g>
	<path opacity="0.9" fill="#84C341" d="M49.342,10.191L10.275,31.987c0,0,15.498,3.346,24.636-1.753
		C44.774,24.733,49.342,10.191,49.342,10.191z"/>
	<path fill="#9D816F" d="M36.02,7.537l-0.628-1.148c-0.13-0.234-1.295-2.345-2.72-4.634c-1.056-1.697-1.949-1.776-3.566-1.776h-9.66
		c0.778,0.895,1.994,2.011,2.881,3.629c0.354,0.647,0.755,1.379,1.233,2.223c1.592,2.798,2.335,4.128,2.679,4.752
		c0.446,0.807,0.95,1.724-0.093,2.319l-2.262,1.19l9.812,0.491l4.243-8.309L36.02,7.537z"/>
	<path fill="#9D816F" d="M45.507,30.984c-1.538,0.566-2.962,0.566-3.619,0.566l-0.396-0.002H30.487v-3.613l-5.471,9.026l5.471,8.894
		v-3.982h6.449c2.621,0,4.439-3.24,4.457-3.273C41.588,38.246,43.828,34.096,45.507,30.984z"/>
	<path fill="#9D816F" d="M7.902,39.418c0.69,1.329,1.636,3.15,6.069,3.15h6.949v-9.825H6.504c-0.855,0-1.662-0.105-2.42-0.314
		c1.487,2.732,3.191,5.858,3.58,6.542C7.74,39.105,7.818,39.256,7.902,39.418z"/>
</g>
</svg>
