<?xml version="1.0" encoding="utf-8"?>
<!-- Generator: Adobe Illustrator 16.0.0, SVG Export Plug-In . SVG Version: 6.00 Build 0)  -->
<!DOCTYPE svg PUBLIC "-//W3C//DTD SVG 1.1//EN" "http://www.w3.org/Graphics/SVG/1.1/DTD/svg11.dtd">
<svg version="1.1" id="Layer_1" xmlns="http://www.w3.org/2000/svg" xmlns:xlink="http://www.w3.org/1999/xlink" x="0px" y="0px"
	 width="74.75px" height="74.75px" viewBox="0 0 74.75 74.75" enable-background="new 0 0 74.75 74.75" xml:space="preserve">
<g>
	<g>
		<path fill="#FFFFFF" d="M37.375,74.75C16.766,74.75,0,57.983,0,37.375C0,16.766,16.766,0,37.375,0
			C57.983,0,74.75,16.766,74.75,37.375C74.75,57.983,57.983,74.75,37.375,74.75z M37.375,3C18.42,3,3,18.42,3,37.375
			C3,56.329,18.42,71.75,37.375,71.75c18.954,0,34.375-15.421,34.375-34.375C71.75,18.42,56.329,3,37.375,3z"/>
	</g>
	<g>
		<g>
			<g>
				<path fill="#FFFFFF" d="M52.015,50.236h-6.945v-19.12c0-3.931-3.198-7.129-7.129-7.129H36.81c-3.931,0-7.129,3.198-7.129,7.129
					v19.12h-6.945v-19.12c0-7.761,6.313-14.074,14.074-14.074h1.131c7.761,0,14.074,6.313,14.074,14.074V50.236z"/>
			</g>
		</g>
		<g opacity="0.5">
			<rect x="22.735" y="51.265" fill="#FFFFFF" width="7.012" height="6.443"/>
		</g>
		<g opacity="0.5">
			<rect x="45.003" y="51.265" fill="#FFFFFF" width="7.012" height="6.443"/>
		</g>
	</g>
</g>
</svg>
