<?xml version="1.0" encoding="utf-8"?>
<!-- Generator: Adobe Illustrator 16.0.0, SVG Export Plug-In . SVG Version: 6.00 Build 0)  -->
<!DOCTYPE svg PUBLIC "-//W3C//DTD SVG 1.1//EN" "http://www.w3.org/Graphics/SVG/1.1/DTD/svg11.dtd">
<svg version="1.1" id="Layer_1" xmlns="http://www.w3.org/2000/svg" xmlns:xlink="http://www.w3.org/1999/xlink" x="0px" y="0px"
	 width="74.75px" height="74.75px" viewBox="0 0 74.75 74.75" enable-background="new 0 0 74.75 74.75" xml:space="preserve">
<g>
	<g>
		<path fill="#FFFFFF" d="M37.375,74.75C16.766,74.75,0,57.983,0,37.375C0,16.766,16.766,0,37.375,0
			C57.983,0,74.75,16.766,74.75,37.375C74.75,57.983,57.983,74.75,37.375,74.75z M37.375,3C18.42,3,3,18.42,3,37.375
			C3,56.329,18.42,71.75,37.375,71.75c18.954,0,34.375-15.421,34.375-34.375C71.75,18.42,56.329,3,37.375,3z"/>
	</g>
	<g>
		<g opacity="0.5">
			<path fill="#FFFFFF" d="M10.058,42.405c0-9.213,4.557-16.752,10.127-16.752c5.571,0,10.127,7.539,10.127,16.752H10.058z"/>
		</g>
		<g>
			<path fill="#FFFFFF" d="M21.289,52.113c0-16.211,8.018-29.477,17.819-29.477s17.82,13.266,17.82,29.477H21.289z"/>
		</g>
		<g opacity="0.5">
			<path fill="#FFFFFF" d="M43.627,42.74c0-9.582,4.738-17.423,10.531-17.423s10.533,7.841,10.533,17.423H43.627z"/>
		</g>
	</g>
</g>
</svg>
