<?xml version="1.0" encoding="utf-8"?>
<!-- Generator: Adobe Illustrator 16.0.0, SVG Export Plug-In . SVG Version: 6.00 Build 0)  -->
<!DOCTYPE svg PUBLIC "-//W3C//DTD SVG 1.1//EN" "http://www.w3.org/Graphics/SVG/1.1/DTD/svg11.dtd">
<svg version="1.1" id="Layer_1" xmlns="http://www.w3.org/2000/svg" xmlns:xlink="http://www.w3.org/1999/xlink" x="0px" y="0px"
	 width="600px" height="600px" viewBox="0 0 600 600" enable-background="new 0 0 600 600" xml:space="preserve">
<g opacity="0.3">
	<path fill="#FFFFFF" d="M120.938,222.542h-18.537l-19.296-59.947h-0.542l-0.434,3.198c-0.976,7.733-2.024,14.219-3.144,19.458
		l-7.859,37.291H56.222L72.971,143.3h19.35l18.428,58.375h0.434c1.265-8.057,2.494-15.014,3.686-20.867l7.967-37.507h14.851
		L120.938,222.542z"/>
	<path fill="#FFFFFF" d="M184.3,222.542h-44.283l16.749-79.242h44.336l-2.927,13.767h-27.751l-3.632,17.398h25.854l-2.981,13.767
		h-25.854l-4.336,20.434h27.751L184.3,222.542z"/>
	<path fill="#FFFFFF" d="M244.463,222.542h-44.283l16.749-79.242h44.336l-2.927,13.767h-27.751l-3.632,17.398h25.854l-2.981,13.767
		h-25.854l-4.336,20.434h27.751L244.463,222.542z"/>
	<path fill="#FFFFFF" d="M329.18,173.273c0,10.118-1.771,18.908-5.312,26.369c-3.542,7.462-8.664,13.144-15.366,17.046
		c-6.703,3.902-14.607,5.854-23.713,5.854h-24.445l16.749-79.242h21.463c9.756,0,17.298,2.584,22.629,7.751
		C326.515,156.219,329.18,163.625,329.18,173.273z M285.548,208.667c5.347,0,10.009-1.373,13.984-4.119
		c3.974-2.746,7.082-6.784,9.323-12.114c2.24-5.33,3.36-11.427,3.36-18.293c0-5.564-1.31-9.801-3.93-12.71
		c-2.62-2.908-6.387-4.363-11.301-4.363h-6.233l-10.949,51.6H285.548z"/>
	<path fill="#FFFFFF" d="M121.643,269.39c0,8.708-3.062,15.547-9.187,20.515c-6.125,4.969-14.572,7.453-25.339,7.453h-8.456
		l-5.908,28.185H56.222L72.971,246.3h22.114c8.744,0,15.357,1.934,19.838,5.799C119.402,255.967,121.643,261.73,121.643,269.39z
		 M81.643,283.591h6.775c5.13,0,9.168-1.247,12.114-3.74c2.945-2.494,4.417-5.835,4.417-10.027c0-3.361-0.876-5.827-2.629-7.398
		c-1.753-1.572-4.382-2.358-7.886-2.358h-7.805L81.643,283.591z"/>
	<path fill="#FFFFFF" d="M152.917,325.543h-35.068l1.951-9.54l10.136-4.444l10.895-51.274l-8.239-4.444l2.005-9.54h35.068
		l-2.005,9.54l-10.298,4.444l-10.895,51.274l8.456,4.444L152.917,325.543z"/>
	<path fill="#FFFFFF" d="M212.593,259.038c-4.77,0-9.061,1.463-12.873,4.39c-3.812,2.927-6.875,7.245-9.187,12.954
		c-2.313,5.71-3.469,11.816-3.469,18.32c0,6.035,1.237,10.515,3.713,13.442c2.475,2.926,6.423,4.39,11.843,4.39
		c5.275,0,11.382-1.391,18.32-4.173v14.092c-7.191,2.783-14.417,4.174-21.68,4.174c-9.179,0-16.315-2.701-21.41-8.104
		c-5.095-5.401-7.642-13.053-7.642-22.954c0-9.467,1.878-18.185,5.637-26.152c3.758-7.967,8.781-14.02,15.068-18.157
		c6.288-4.137,13.514-6.206,21.681-6.206c4.517,0,8.527,0.406,12.033,1.219c3.504,0.813,7.263,2.304,11.274,4.472l-6.396,13.55
		c-3.831-2.131-6.992-3.541-9.485-4.228C217.525,259.381,215.049,259.038,212.593,259.038z"/>
	<path fill="#FFFFFF" d="M262.404,325.543h-16.531l13.767-65.259h-19.079l2.981-13.984h54.743l-2.981,13.984h-19.133
		L262.404,325.543z"/>
	<path fill="#FFFFFF" d="M368.096,246.3l-10.895,51.274c-2.059,9.613-5.998,16.857-11.814,21.735
		c-5.818,4.878-13.389,7.317-22.711,7.317c-7.662,0-13.686-2.051-18.076-6.152c-4.391-4.101-6.585-9.656-6.585-16.667
		c0-2.602,0.271-5.095,0.813-7.479l10.624-50.028h16.531l-10.516,49.811c-0.615,2.674-0.922,4.932-0.922,6.775
		c0,6.432,3.416,9.647,10.244,9.647c4.445,0,7.969-1.382,10.57-4.146s4.479-6.892,5.637-12.385L351.51,246.3H368.096z"/>
	<path fill="#FFFFFF" d="M392.92,295.136l-6.449,30.407h-16.531l16.748-79.243h19.458c8.563,0,14.995,1.843,19.296,5.528
		c4.3,3.686,6.449,9.088,6.449,16.207c0,5.709-1.499,10.615-4.498,14.715c-3,4.102-7.317,7.146-12.954,9.133l14.146,33.66H410.59
		l-11.22-30.407H392.92z M395.793,281.477h4.228c4.733,0,8.419-1.03,11.058-3.09c2.637-2.06,3.956-5.203,3.956-9.431
		c0-2.962-0.858-5.185-2.574-6.667c-1.717-1.481-4.417-2.222-8.104-2.222h-4.011L395.793,281.477z"/>
	<path fill="#FFFFFF" d="M481.811,325.543h-44.282l16.748-79.243h44.336l-2.927,13.767h-27.751l-3.631,17.398h25.854l-2.98,13.767
		h-25.854l-4.336,20.434h27.751L481.811,325.543z"/>
	<path fill="#FFFFFF" d="M114.868,428.543H98.282l7.263-34.201H80.017l-7.263,34.201H56.222l16.749-79.242h16.585l-6.559,31.057
		h25.529l6.559-31.057h16.531L114.868,428.543z"/>
	<path fill="#FFFFFF" d="M178.229,428.543h-44.283l16.749-79.242h44.336l-2.927,13.767h-27.751l-3.632,17.398h25.854l-2.981,13.767
		h-25.854l-4.336,20.434h27.751L178.229,428.543z"/>
	<path fill="#FFFFFF" d="M217.092,398.135l-6.45,30.408H194.11l16.749-79.242h19.458c8.564,0,14.995,1.842,19.295,5.527
		c4.3,3.687,6.45,9.089,6.45,16.207c0,5.709-1.5,10.615-4.499,14.715c-3,4.102-7.317,7.146-12.954,9.133l14.146,33.66h-17.995
		l-11.22-30.408H217.092z M219.964,384.477h4.228c4.733,0,8.419-1.029,11.057-3.09c2.637-2.059,3.957-5.203,3.957-9.43
		c0-2.963-0.859-5.186-2.575-6.668c-1.717-1.48-4.417-2.222-8.103-2.222h-4.011L219.964,384.477z"/>
	<path fill="#FFFFFF" d="M305.982,428.543h-44.283l16.749-79.242h44.335l-2.926,13.767h-27.751l-3.632,17.398h25.854l-2.98,13.767
		h-25.854l-4.336,20.434h27.75L305.982,428.543z"/>
</g>
</svg>
