<?xml version="1.0" encoding="utf-8"?>
<!-- Generator: Adobe Illustrator 16.0.0, SVG Export Plug-In . SVG Version: 6.00 Build 0)  -->
<!DOCTYPE svg PUBLIC "-//W3C//DTD SVG 1.1//EN" "http://www.w3.org/Graphics/SVG/1.1/DTD/svg11.dtd">
<svg version="1.1" id="Layer_1" xmlns="http://www.w3.org/2000/svg" xmlns:xlink="http://www.w3.org/1999/xlink" x="0px" y="0px"
	 width="74.75px" height="74.75px" viewBox="0 0 74.75 74.75" enable-background="new 0 0 74.75 74.75" xml:space="preserve">
<g>
	<g>
		<path fill="#FFFFFF" d="M37.375,74.75C16.766,74.75,0,57.983,0,37.375C0,16.766,16.766,0,37.375,0
			C57.983,0,74.75,16.766,74.75,37.375C74.75,57.983,57.983,74.75,37.375,74.75z M37.375,3C18.42,3,3,18.42,3,37.375
			C3,56.329,18.42,71.75,37.375,71.75c18.954,0,34.375-15.421,34.375-34.375C71.75,18.42,56.329,3,37.375,3z"/>
	</g>
	<g>
		<g>
			<path fill="#FFFFFF" d="M27.448,38.456l3.5,1.478l-4.897-8.655H15.424l3.088,1.892l0.744,0.557l-0.403,0.837
				c-0.086,0.183-2.151,4.473-2.623,5.397c-0.255,0.499-0.542,2.611,0.187,3.382c1.286,1.364,2.691,2.057,4.175,2.057h2.7
				l3.611-6.036L27.448,38.456z"/>
		</g>
		<g>
			<path fill="#FFFFFF" d="M31.58,16.401c-0.423-0.17-0.938-0.26-1.485-0.26c-0.807,0-1.632,0.189-2.321,0.532
				c-0.881,0.438-1.717,1.867-2.073,2.476c-0.105,0.178-0.187,0.317-0.243,0.4c-0.141,0.209-0.938,1.635-1.77,3.146l7.679,4.867
				l3.792-7.315C33.72,17.521,32.438,16.746,31.58,16.401z"/>
		</g>
		<g>
			<path fill="#FFFFFF" d="M52.168,44.4c3.688,0,5.205-0.809,5.828-1.486c1.154-1.257,1.576-2.639,1.19-3.896
				c-0.256-0.826-2.238-4.565-3.739-7.305l-8.248,5.059l4.29,7.623C51.685,44.397,51.914,44.4,52.168,44.4z"/>
		</g>
		<g>
			<path fill="#FFFFFF" d="M48.432,23.018l-0.585-1.071c-0.122-0.22-1.209-2.189-2.538-4.326c-0.986-1.585-1.82-1.659-3.331-1.659
				l-9.017,0.001c0.726,0.834,1.862,1.875,2.689,3.388c0.331,0.604,0.704,1.286,1.151,2.075c1.485,2.611,2.18,3.853,2.5,4.435
				c0.417,0.754,0.887,1.608-0.087,2.164l-2.11,1.112l9.159,0.459l3.96-7.756L48.432,23.018z"/>
		</g>
		<g>
			<path fill="#FFFFFF" d="M57.288,44.906c-1.437,0.528-2.765,0.528-3.378,0.528l-0.37-0.003H43.269v-3.373l-5.106,8.426
				l5.106,8.304V55.07h6.02c2.448,0,4.145-3.025,4.161-3.057C53.63,51.685,55.722,47.811,57.288,44.906z"/>
		</g>
		<g>
			<path fill="#FFFFFF" d="M22.186,52.778c0.645,1.241,1.526,2.94,5.665,2.94h6.487v-9.172H20.881c-0.798,0-1.551-0.098-2.259-0.293
				c1.389,2.551,2.979,5.47,3.341,6.107C22.034,52.486,22.107,52.627,22.186,52.778z"/>
		</g>
	</g>
</g>
</svg>
